<svg xmlns="http://www.w3.org/2000/svg" xml:space="preserve" width="1500" height="169" data-id="lg_CcIgV78YXaZy7rsRDB" data-version="1" viewBox="0 0 1500 169"><g data-padding="20"><g transform="translate(10 3.034)scale(.9641)"><rect width="472.059" height="143.51" x="75.462" y="-339.128" fill="none" rx="0" ry="0" transform="translate(400 400)scale(1.18)"/><path fill="#354ead" d="M537.295 132.172q-11.08 0-19.93-5.393-8.838-5.393-13.936-14.833t-5.097-21.275q0-11.989 5.475-21.358t14.832-14.844q9.37-5.464 21.063-5.464 11.836 0 21.122 5.464 9.299 5.475 14.762 14.915 5.475 9.44 5.475 21.287l-5.392 1.192q0 11.387-5.027 20.532-5.015 9.145-13.64 14.467-8.615 5.31-19.707 5.31m2.407-12.438q8.083 0 14.302-3.823 6.219-3.811 9.9-10.407 3.67-6.597 3.67-14.833 0-8.402-3.67-14.986-3.681-6.596-9.9-10.42t-14.302-3.823q-7.8 0-14.171 3.824-6.36 3.823-10.03 10.419-3.682 6.584-3.682 14.986 0 8.236 3.682 14.833 3.67 6.596 10.03 10.407 6.372 3.823 14.17 3.823m34.316 11.99q-2.997 0-5.027-2.019-2.018-2.03-2.018-5.026v-23.825l2.844-14.537 11.245 4.354v34.008q0 2.997-1.947 5.026-1.947 2.018-5.097 2.018m38.668-.141q-3.15 0-5.097-1.947-1.947-1.96-1.947-5.098V56.652q0-3.151 1.947-5.098t5.097-1.947q3.14 0 5.086 1.947t1.947 5.098v67.885q0 3.139-1.947 5.098-1.947 1.947-5.086 1.947m0-96.064q-3.752 0-6.525-2.773t-2.773-6.514q0-4.047 2.773-6.679 2.773-2.62 6.525-2.62 3.74 0 6.514 2.62 2.773 2.632 2.773 6.68 0 3.74-2.702 6.513-2.69 2.773-6.585 2.773m49.596 45.111h-7.34q.154-9.145 4.567-16.343 4.425-7.186 11.847-11.387 7.41-4.189 16.249-4.189 8.248 0 12.449 2.62 4.189 2.62 3.292 6.513-.602 2.1-1.876 3.151t-3.068 1.204q-1.806.141-3.894-.307-9.3-1.499-16.568.448t-11.457 6.596q-4.201 4.65-4.201 11.694m-6.891 50.953q-3.293 0-5.098-1.723-1.794-1.723-1.794-5.18v-68.18q0-3.293 1.794-5.098 1.805-1.794 5.098-1.794 3.445 0 5.168 1.723t1.723 5.168v68.18q0 3.305-1.723 5.098-1.723 1.806-5.168 1.806m105.963.59q-11.694 0-21.051-5.393-9.37-5.393-14.762-14.833-5.405-9.44-5.546-21.275V21.582q0-3.15 1.947-5.098t5.097-1.947q3.14 0 5.086 1.947t1.947 5.098v41.654q5.098-6.584 12.744-10.408t16.933-3.823q11.092 0 19.93 5.464 8.839 5.475 14.019 14.844 5.168 9.37 5.168 21.205t-5.475 21.275q-5.463 9.44-14.833 14.915-9.37 5.464-21.204 5.464m0-12.438q7.94 0 14.23-3.823 6.302-3.811 9.972-10.49 3.67-6.667 3.67-14.903 0-8.39-3.67-14.916-3.67-6.513-9.971-10.336-6.29-3.824-14.231-3.824t-14.243 3.824q-6.29 3.823-9.888 10.336-3.6 6.526-3.6 14.916 0 8.236 3.6 14.903 3.599 6.679 9.888 10.49 6.3 3.823 14.243 3.823m133.67 11.978q-2.997 0-5.015-2.018-2.03-2.03-2.03-5.026V87.06q0-8.697-3.22-14.313-3.222-5.617-8.84-8.39t-12.66-2.773q-6.75 0-12.06 2.69-5.322 2.702-8.472 7.198-3.151 4.496-3.151 10.195h-9.133q.14-9.451 4.79-16.862 4.65-7.422 12.59-11.694t17.83-4.271q10.338 0 18.586 4.425 8.236 4.425 13.039 12.956 4.79 8.543 4.79 20.839v37.607q0 2.997-2.017 5.026-2.03 2.018-5.027 2.018m-62.493 0q-3.138 0-5.085-2.018-1.947-2.03-1.947-5.026V56.64q0-3.151 1.947-5.098t5.085-1.947q3.15 0 5.098 1.947t1.947 5.098v68.027q0 2.997-1.947 5.026-1.947 2.018-5.098 2.018m136.22.461q-11.693 0-21.063-5.393-9.357-5.393-14.761-14.833-5.393-9.44-5.535-21.275V21.582q0-3.15 1.947-5.098t5.086-1.947q3.15 0 5.098 1.947t1.947 5.098v41.654q5.097-6.584 12.744-10.408t16.933-3.823q11.092 0 19.93 5.464 8.838 5.475 14.007 14.844 5.18 9.37 5.18 21.205t-5.475 21.275q-5.464 9.44-14.833 14.915-9.37 5.464-21.205 5.464m0-12.438q7.942 0 14.23-3.823 6.302-3.811 9.972-10.49 3.67-6.667 3.67-14.903 0-8.39-3.67-14.916-3.67-6.513-9.97-10.336-6.29-3.824-14.232-3.824t-14.242 3.824q-6.29 3.823-9.89 10.336-3.598 6.526-3.598 14.916 0 8.236 3.6 14.903 3.598 6.679 9.888 10.49 6.3 3.823 14.242 3.823"/></g><path fill="transparent" stroke="transparent" d="M471.5 0h557v169h-557z"/></g></svg>